<?xml version="1.0" encoding="UTF-8"?>
<svg version="1.1" xmlns="http://www.w3.org/2000/svg" width="416" height="123">
<path d="M0 0 C2.5625 0.1875 2.5625 0.1875 4.5625 2.1875 C4.7578125 4.5703125 4.7578125 4.5703125 4.6875 7.3125 C4.66945312 8.22257812 4.65140625 9.13265625 4.6328125 10.0703125 C4.60960937 10.76898438 4.58640625 11.46765625 4.5625 12.1875 C6.3878125 12.0946875 6.3878125 12.0946875 8.25 12 C12.18107111 12.01389071 14.45940046 12.61636038 17.5625 15.1875 C20.22694698 18.70837636 21.29289939 21.78402334 21.5625 26.1875 C20.53716167 31.21165784 18.52544362 33.96184821 14.5625 37.1875 C12.375 38 12.375 38 9.5625 38.1875 C8.75941406 38.249375 7.95632812 38.31125 7.12890625 38.375 C1.89354963 38.61815154 1.89354963 38.61815154 -0.4375 38.1875 C-3.0064295 35.72982639 -3.42644109 34.29508203 -3.79394531 30.7199707 C-3.80019688 29.35105594 -3.78983414 27.9819962 -3.765625 26.61328125 C-3.76375183 25.88884323 -3.76187866 25.16440521 -3.75994873 24.41801453 C-3.75324422 22.89248018 -3.73936147 21.36696257 -3.71875 19.84155273 C-3.68746961 17.497723 -3.67776511 15.15456508 -3.671875 12.81054688 C-3.66270968 11.32811674 -3.65233541 9.84569347 -3.640625 8.36328125 C-3.63637512 7.65915604 -3.63212524 6.95503082 -3.62774658 6.22956848 C-3.53937969 0.27225998 -3.53937969 0.27225998 0 0 Z M4.5625 19.1875 C4.5625 23.1475 4.5625 27.1075 4.5625 31.1875 C8.18576739 32.3952558 9.20396369 31.73061128 12.5625 30.1875 C13.65027852 25.38811268 13.65027852 25.38811268 12.5 20.75 C10.19892671 18.55974755 10.19892671 18.55974755 4.5625 19.1875 Z " fill="#EBEBEB" transform="translate(222.4375,37.8125)"/>
<path d="M0 0 C0.33 -0.33 0.66 -0.66 1 -1 C2.66617115 -1.04063832 4.33388095 -1.042721 6 -1 C7.80739357 2.61478714 7.22756068 6.83232546 7.25 10.8125 C7.270625 11.71548828 7.29125 12.61847656 7.3125 13.54882812 C7.36469616 22.42869969 7.36469616 22.42869969 4 26 C-1.42558861 27.35639715 -7.9438667 26.12357599 -13 24 C-16.23852619 21.18759568 -17.27661865 18.69474757 -17.9375 14.5625 C-18.23088583 10.25473729 -17.5159329 7.60617049 -15 4 C-10.11138018 -0.75997193 -6.50134203 -1.44474267 0 0 Z M-8.9375 8.625 C-10.39177282 11.87572748 -10.07387226 13.63520026 -9 17 C-7.30835778 19.04029596 -7.30835778 19.04029596 -5 20 C-3.68 19.67 -2.36 19.34 -1 19 C-1 15.04 -1 11.08 -1 7 C-6.6552653 6.35738774 -6.6552653 6.35738774 -8.9375 8.625 Z " fill="#EEEEEE" transform="translate(345,50)"/>
<path d="M0 0 C1 1 1 1 1.11352539 3.31665039 C1.10828857 4.31688232 1.10305176 5.31711426 1.09765625 6.34765625 C1.09443359 7.42724609 1.09121094 8.50683594 1.08789062 9.61914062 C1.07951172 10.75544922 1.07113281 11.89175781 1.0625 13.0625 C1.05798828 14.20267578 1.05347656 15.34285156 1.04882812 16.51757812 C1.03699747 19.34510351 1.0205141 22.1725264 1 25 C-2.72122149 26.57200631 -5.50401119 27.27257852 -9.5625 27.25 C-10.49191406 27.25515625 -11.42132813 27.2603125 -12.37890625 27.265625 C-15.1296134 26.98686481 -16.70526482 26.52150919 -19 25 C-23.8878437 17.5984081 -23.8878437 17.5984081 -24 13 C-23.29700493 10.18265334 -22.47710298 7.50873045 -21 5 C-20.01 4.67 -19.02 4.34 -18 4 C-18 3.34 -18 2.68 -18 2 C-12.0063721 -0.1310677 -6.34479831 -0.47201787 0 0 Z M-12.6875 8 C-15.22695731 9.85593055 -15.22695731 9.85593055 -16 12.9375 C-16.22328979 15.96962044 -16.22328979 15.96962044 -14.875 18.3125 C-12.59538788 20.36415091 -11.03068368 20.7607355 -8 21 C-6.26043342 19.26043342 -6.62809614 16.8063378 -6.4375 14.4375 C-6.35371094 13.42558594 -6.26992187 12.41367187 -6.18359375 11.37109375 C-6.12300781 10.58863281 -6.06242187 9.80617188 -6 9 C-9.14979728 7.05368198 -9.14979728 7.05368198 -12.6875 8 Z " fill="#E6E6E6" transform="translate(196,49)"/>
<path d="M0 0 C3.69010483 2.95208386 4.97842622 4.72205389 5.9375 9.4375 C6.06125 11.0771875 6.06125 11.0771875 6.1875 12.75 C4.12827598 14.80922402 -0.02958124 14.16427579 -2.875 14.3125 C-4.01291992 14.37727539 -4.01291992 14.37727539 -5.17382812 14.44335938 C-7.05315438 14.54973633 -8.93280244 14.65039934 -10.8125 14.75 C-8.92403817 17.07866229 -8.92403817 17.07866229 -5.7734375 16.9453125 C-3.99839844 16.91050781 -3.99839844 16.91050781 -2.1875 16.875 C-0.99898438 16.85695313 0.18953125 16.83890625 1.4140625 16.8203125 C2.78691406 16.78550781 2.78691406 16.78550781 4.1875 16.75 C4.1875 18.73 4.1875 20.71 4.1875 22.75 C3.5275 22.75 2.8675 22.75 2.1875 22.75 C1.8575 23.41 1.5275 24.07 1.1875 24.75 C-5.22683011 26.21291739 -8.84539644 25.41388552 -14.8125 22.75 C-14.8125 22.09 -14.8125 21.43 -14.8125 20.75 C-15.4725 20.75 -16.1325 20.75 -16.8125 20.75 C-19.44459828 15.59108737 -20.39664427 12.55852897 -18.8125 6.75 C-17.1709899 3.74999877 -15.75739884 1.49242052 -13.0625 -0.625 C-8.39863264 -1.92051871 -4.37274106 -1.94344047 0 0 Z M-8.875 6.75 C-9.514375 7.41 -10.15375 8.07 -10.8125 8.75 C-7.8425 8.75 -4.8725 8.75 -1.8125 8.75 C-3.12450404 7.39567325 -4.45881404 6.06266518 -5.8125 4.75 C-7.17167681 4.63397569 -7.17167681 4.63397569 -8.875 6.75 Z " fill="#E8E8E8" transform="translate(304.8125,51.25)"/>
<path d="M0 0 C1.98 0 3.96 0 6 0 C6 4.95 6 9.9 6 15 C10.29 15 14.58 15 19 15 C19 16.98 19 18.96 19 21 C14.71 21 10.42 21 6 21 C6.01160156 22.07121094 6.02320313 23.14242187 6.03515625 24.24609375 C6.04453299 25.64322743 6.05363331 27.04036299 6.0625 28.4375 C6.07087891 29.14455078 6.07925781 29.85160156 6.08789062 30.58007812 C6.09653588 32.38693559 6.05220011 34.19387603 6 36 C5 37 5 37 2.4375 37.0625 C1.633125 37.041875 0.82875 37.02125 0 37 C-1.50156874 33.99686252 -1.09281204 31.20932478 -1.0625 27.875 C-1.05347656 26.59367187 -1.04445312 25.31234375 -1.03515625 23.9921875 C-1.02355469 23.00476563 -1.01195312 22.01734375 -1 21 C-5.29 21 -9.58 21 -14 21 C-14 19.02 -14 17.04 -14 15 C-9.71 15 -5.42 15 -1 15 C-1.01160156 14.00097656 -1.02320313 13.00195312 -1.03515625 11.97265625 C-1.04417969 10.68230469 -1.05320313 9.39195313 -1.0625 8.0625 C-1.07410156 6.77472656 -1.08570313 5.48695312 -1.09765625 4.16015625 C-1 1 -1 1 0 0 Z " fill="#E1E1E1" transform="translate(137,40)"/>
<path d="M0 0 C3 0.125 3 0.125 4 1.125 C4.07325168 3.98767567 4.09238205 6.825719 4.0625 9.6875 C4.05798828 10.49380859 4.05347656 11.30011719 4.04882812 12.13085938 C4.03700518 14.12893756 4.01906914 16.12697783 4 18.125 C5.9914056 18.50633299 7.99279077 18.83825582 10 19.125 C11.44179008 17.91498461 11.44179008 17.91498461 11.0625 14.34375 C11.04647651 12.77077698 11.02540952 11.1978494 11 9.625 C10.95413266 6.78581173 10.95304951 3.96550492 11 1.125 C12 0.125 12 0.125 15 0 C18 0.125 18 0.125 19 1.125 C19.15418569 4.05452805 19.23173953 6.94419425 19.25 9.875 C19.270625 10.68710937 19.29125 11.49921875 19.3125 12.3359375 C19.34347999 17.09136637 19.11914434 20.27855518 16 24.125 C12.0685968 26.41831853 8.48235521 26.51818905 4 26.125 C-1.40570205 24.18710681 -1.40570205 24.18710681 -3.15625 21.05859375 C-4.29110449 17.11287283 -4.25289888 13.45726665 -4.1875 9.375 C-4.18685547 8.59511719 -4.18621094 7.81523438 -4.18554688 7.01171875 C-4.13201995 0.1721675 -4.13201995 0.1721675 0 0 Z " fill="#DCDCDC" transform="translate(373,49.875)"/>
<path d="M0 0 C4.55555556 0.55555556 4.55555556 0.55555556 6 2 C6.09795311 3.37609882 6.12798088 4.75713882 6.12939453 6.13671875 C6.13254669 7.01432861 6.13569885 7.89193848 6.13894653 8.79614258 C6.1369223 9.75029053 6.13489807 10.70443848 6.1328125 11.6875 C6.13376923 12.66033936 6.13472595 13.63317871 6.13571167 14.63549805 C6.13639358 16.696778 6.13453853 18.75806008 6.13037109 20.81933594 C6.125023 23.98637688 6.13031572 27.153276 6.13671875 30.3203125 C6.13605797 32.31770865 6.13477681 34.31510471 6.1328125 36.3125 C6.13483673 37.26664795 6.13686096 38.2207959 6.13894653 39.20385742 C6.13579437 40.08146729 6.13264221 40.95907715 6.12939453 41.86328125 C6.12859894 42.63969971 6.12780334 43.41611816 6.12698364 44.21606445 C6 46 6 46 5 47 C2 47.125 2 47.125 -1 47 C-2.54156555 45.45843445 -2.13468494 44.02554236 -2.14526367 41.87915039 C-2.15164352 41.00476822 -2.15802338 40.13038605 -2.16459656 39.22950745 C-2.16570938 38.27849655 -2.1668222 37.32748566 -2.16796875 36.34765625 C-2.17129715 35.37718857 -2.17462555 34.40672089 -2.17805481 33.40684509 C-2.1831283 31.3497668 -2.18546301 29.29268025 -2.18530273 27.2355957 C-2.18748826 24.07945256 -2.20563691 20.92365929 -2.22460938 17.76757812 C-2.22754333 15.7734387 -2.22952811 13.77929761 -2.23046875 11.78515625 C-2.23765427 10.83616959 -2.24483978 9.88718292 -2.25224304 8.90943909 C-2.24916641 8.03190475 -2.24608978 7.15437042 -2.24291992 6.25024414 C-2.24434494 5.4760463 -2.24576996 4.70184845 -2.24723816 3.90419006 C-2 2 -2 2 0 0 Z " fill="#EDEDED" transform="translate(262,33)"/>
<path d="M0 0 C4.55555556 0.55555556 4.55555556 0.55555556 6 2 C6.07226502 3.85287502 6.0838122 5.70833878 6.0625 7.5625 C6.05347656 8.57441406 6.04445313 9.58632813 6.03515625 10.62890625 C6.02355469 11.41136719 6.01195313 12.19382812 6 13 C9.3 13 12.6 13 16 13 C16 14.65 16 16.3 16 18 C15 19 15 19 12.93359375 19.09765625 C12.10988281 19.08605469 11.28617188 19.07445313 10.4375 19.0625 C9.61121094 19.05347656 8.78492187 19.04445313 7.93359375 19.03515625 C6.97646484 19.01775391 6.97646484 19.01775391 6 19 C6.02320312 19.69867188 6.04640625 20.39734375 6.0703125 21.1171875 C6.09738281 22.48230469 6.09738281 22.48230469 6.125 23.875 C6.14820312 24.77992187 6.17140625 25.68484375 6.1953125 26.6171875 C6 29 6 29 4 31 C-0.55555556 30.44444444 -0.55555556 30.44444444 -2 29 C-2.07205511 27.31391034 -2.08386068 25.62499341 -2.0625 23.9375 C-2.05347656 23.01839844 -2.04445313 22.09929687 -2.03515625 21.15234375 C-2.02355469 20.44207031 -2.01195312 19.73179688 -2 19 C-2.63808594 19.01160156 -3.27617188 19.02320312 -3.93359375 19.03515625 C-5.17302734 19.04869141 -5.17302734 19.04869141 -6.4375 19.0625 C-7.67306641 19.07990234 -7.67306641 19.07990234 -8.93359375 19.09765625 C-11 19 -11 19 -12 18 C-12 16.35 -12 14.7 -12 13 C-8.7 13 -5.4 13 -2 13 C-2.02320313 12.22914062 -2.04640625 11.45828125 -2.0703125 10.6640625 C-2.08835937 9.66117188 -2.10640625 8.65828125 -2.125 7.625 C-2.14820313 6.62726562 -2.17140625 5.62953125 -2.1953125 4.6015625 C-2 2 -2 2 0 0 Z " fill="#BDBDBD" transform="translate(64,42)"/>
<path d="M0 0 C2.5 0.125 2.5 0.125 3.5 1.125 C3.64193337 4.12831018 3.54236378 7.11717134 3.5 10.125 C6.47 10.125 9.44 10.125 12.5 10.125 C12.83 11.445 13.16 12.765 13.5 14.125 C11.5 16.125 11.5 16.125 9.5546875 16.3203125 C7.53645833 16.25520833 5.51822917 16.19010417 3.5 16.125 C3.52320312 16.75148438 3.54640625 17.37796875 3.5703125 18.0234375 C3.59738281 19.24933594 3.59738281 19.24933594 3.625 20.5 C3.64820312 21.31210937 3.67140625 22.12421875 3.6953125 22.9609375 C3.5 25.125 3.5 25.125 1.5 27.125 C-2.03571429 26.58928571 -2.03571429 26.58928571 -3.5 25.125 C-3.57179964 23.60571962 -3.58392007 22.08332518 -3.5625 20.5625 C-3.55347656 19.73621094 -3.54445313 18.90992187 -3.53515625 18.05859375 C-3.52355469 17.42050781 -3.51195312 16.78242187 -3.5 16.125 C-6.14 16.125 -8.78 16.125 -11.5 16.125 C-11.88218767 14.46885343 -12.21395102 12.80042976 -12.5 11.125 C-11.5 10.125 -11.5 10.125 -9.65234375 10.02734375 C-7.6015625 10.05989583 -5.55078125 10.09244792 -3.5 10.125 C-3.51160156 9.48691406 -3.52320313 8.84882812 -3.53515625 8.19140625 C-3.54417969 7.36511719 -3.55320312 6.53882813 -3.5625 5.6875 C-3.57410156 4.86378906 -3.58570313 4.04007813 -3.59765625 3.19140625 C-3.4527802 0.12582896 -3.07795841 0.15389792 0 0 Z " fill="#C7C7C7" transform="translate(45.5,25.875)"/>
<path d="M0 0 C1.32 0 2.64 0 4 0 C5.60725635 3.21451269 5.05748185 6.43612536 5 10 C7.64 10 10.28 10 13 10 C14.0625 11.875 14.0625 11.875 15 14 C14.67 14.66 14.34 15.32 14 16 C11.03 16 8.06 16 5 16 C5.020625 17.44375 5.04125 18.8875 5.0625 20.375 C5.125 24.75 5.125 24.75 4 27 C-0.875 26.125 -0.875 26.125 -2 25 C-2.14193337 21.99668982 -2.04236378 19.00782866 -2 16 C-4.97 16 -7.94 16 -11 16 C-11.042721 14.33388095 -11.04063832 12.66617115 -11 11 C-10 10 -10 10 -8.15234375 9.90234375 C-6.1015625 9.93489583 -4.05078125 9.96744792 -2 10 C-2.04125 8.72125 -2.0825 7.4425 -2.125 6.125 C-2.1953125 3.9453125 -2.1953125 3.9453125 -2 2 C-1.34 1.34 -0.68 0.68 0 0 Z " fill="#C3C3C3" transform="translate(44,63)"/>
<path d="M0 0 C1.65 0.33 3.3 0.66 5 1 C5 3.97 5 6.94 5 10 C7.1965625 9.9690625 7.1965625 9.9690625 9.4375 9.9375 C10.95832518 9.91607993 12.48071962 9.92820036 14 10 C15 11 15 11 15.0625 13.5625 C15.041875 14.366875 15.02125 15.17125 15 16 C11.78548731 17.60725635 8.56387464 17.05748185 5 17 C5 19.97 5 22.94 5 26 C1 27 1 27 -1 26 C-1 23.03 -1 20.06 -1 17 C-2.11375 17.020625 -3.2275 17.04125 -4.375 17.0625 C-8 17 -8 17 -10 16 C-10.042721 14.33388095 -10.04063832 12.66617115 -10 11 C-9 10 -9 10 -7.15234375 9.90234375 C-5.1015625 9.93489583 -3.05078125 9.96744792 -1 10 C-1.020625 8.72125 -1.04125 7.4425 -1.0625 6.125 C-1.125 2.25 -1.125 2.25 0 0 Z " fill="#D4D4D4" transform="translate(84,63)"/>
<path d="M0 0 C1.2065625 0.0309375 1.2065625 0.0309375 2.4375 0.0625 C2.7675 3.0325 3.0975 6.0025 3.4375 9.0625 C6.0775 9.3925 8.7175 9.7225 11.4375 10.0625 C11.7675 11.7125 12.0975 13.3625 12.4375 15.0625 C9.4675 15.0625 6.4975 15.0625 3.4375 15.0625 C3.1075 18.6925 2.7775 22.3225 2.4375 26.0625 C1.1175 26.3925 -0.2025 26.7225 -1.5625 27.0625 C-3.5625 25.0625 -3.5625 25.0625 -3.7578125 22.6796875 C-3.72300781 21.32230469 -3.72300781 21.32230469 -3.6875 19.9375 C-3.66945313 19.02742188 -3.65140625 18.11734375 -3.6328125 17.1796875 C-3.60960938 16.48101562 -3.58640625 15.78234375 -3.5625 15.0625 C-6.5325 15.0625 -9.5025 15.0625 -12.5625 15.0625 C-12.5625 13.4125 -12.5625 11.7625 -12.5625 10.0625 C-9.5925 10.0625 -6.6225 10.0625 -3.5625 10.0625 C-3.583125 8.598125 -3.60375 7.13375 -3.625 5.625 C-3.64642007 4.10417482 -3.63429964 2.58178038 -3.5625 1.0625 C-2.5625 0.0625 -2.5625 0.0625 0 0 Z " fill="#D9D9D9" transform="translate(86.5625,25.9375)"/>
<path d="M0 0 C1.67542976 0.28604898 3.34385343 0.61781233 5 1 C5 2.98 5 4.96 5 7 C6.65 7 8.3 7 10 7 C10.38218767 8.65614657 10.71395102 10.32457024 11 12 C10 13 10 13 7.4375 13.0625 C6.633125 13.041875 5.82875 13.02125 5 13 C5 14.98 5 16.96 5 19 C3.02 19 1.04 19 -1 19 C-1 17.02 -1 15.04 -1 13 C-2.65 13 -4.3 13 -6 13 C-6.38218767 11.34385343 -6.71395102 9.67542976 -7 8 C-6 7 -6 7 -3.4375 6.9375 C-2.2309375 6.9684375 -2.2309375 6.9684375 -1 7 C-1.020625 6.030625 -1.04125 5.06125 -1.0625 4.0625 C-1 1 -1 1 0 0 Z " fill="#CFCFCF" transform="translate(95,48)"/>
<path d="M0 0 C1.67542976 0.28604898 3.34385343 0.61781233 5 1 C5 3.31 5 5.62 5 8 C6.98 8 8.96 8 11 8 C11 9.32 11 10.64 11 12 C9.02 12 7.04 12 5 12 C5 14.31 5 16.62 5 19 C3.34385343 19.38218767 1.67542976 19.71395102 0 20 C-1 19 -1 19 -1.0625 15.4375 C-1.041875 14.303125 -1.02125 13.16875 -1 12 C-2.98 12 -4.96 12 -7 12 C-7 10.68 -7 9.36 -7 8 C-5.02 8 -3.04 8 -1 8 C-1.020625 6.865625 -1.04125 5.73125 -1.0625 4.5625 C-1 1 -1 1 0 0 Z " fill="#E4E4E4" transform="translate(64,78)"/>
<path d="M0 0 C2.125 0.375 2.125 0.375 4 1 C4 2.98 4 4.96 4 7 C5.65 7 7.3 7 9 7 C9.5625 8.9375 9.5625 8.9375 10 11 C9 12 9 12 6.4375 12.0625 C5.633125 12.041875 4.82875 12.02125 4 12 C4.061875 12.94875 4.12375 13.8975 4.1875 14.875 C4.125625 15.90625 4.06375 16.9375 4 18 C3.01 18.66 2.02 19.32 1 20 C0.01 19.34 -0.98 18.68 -2 18 C-2.1875 14.875 -2.1875 14.875 -2 12 C-3.65 12 -5.3 12 -7 12 C-7.33 10.68 -7.66 9.36 -8 8 C-6.02 7.67 -4.04 7.34 -2 7 C-2.04125 6.21625 -2.0825 5.4325 -2.125 4.625 C-2 2 -2 2 0 0 Z " fill="#BEBEBE" transform="translate(65,18)"/>
<path d="M0 0 C1.65 0.33 3.3 0.66 5 1 C5 2.65 5 4.3 5 6 C5.78375 5.938125 6.5675 5.87625 7.375 5.8125 C8.674375 5.9053125 8.674375 5.9053125 10 6 C10.99 7.485 10.99 7.485 12 9 C11.67 9.66 11.34 10.32 11 11 C9.02 11 7.04 11 5 11 C5 12.98 5 14.96 5 17 C3.35 17.33 1.7 17.66 0 18 C0 15.69 0 13.38 0 11 C-1.98 11 -3.96 11 -6 11 C-6 7 -6 7 -5 6 C-3.33382885 5.95936168 -1.66611905 5.957279 0 6 C0 4.02 0 2.04 0 0 Z " fill="#D2D2D2" transform="translate(32,49)"/>
</svg>
