<?xml version="1.0" encoding="UTF-8"?>
<svg version="1.1" xmlns="http://www.w3.org/2000/svg" width="1500" height="482">
<path d="M0 0 C0.66902344 0.55171875 1.33804687 1.1034375 2.02734375 1.671875 C15.38424203 13.86593743 23.98493189 33.08920935 25.20361328 50.9909668 C25.30354732 54.22626866 25.32913302 57.450715 25.3125 60.6875 C25.30686035 61.83653809 25.3012207 62.98557617 25.29541016 64.16943359 C24.92341269 90.26450315 14.59595288 114.59557847 -4 133 C-15.61656251 143.62608984 -29.23015265 149.86098251 -44.875 151.375 C-49.77176196 150.78738856 -53.5253372 149.52074601 -57 145.9375 C-59.14762723 139.628845 -57.43208918 133.41580343 -54.70703125 127.51953125 C-53.75576049 125.61036412 -52.79040578 123.70816228 -51.8125 121.8125 C-50.80415225 119.77629124 -49.79893574 117.73852883 -48.796875 115.69921875 C-48.31283203 114.72001465 -47.82878906 113.74081055 -47.33007812 112.73193359 C-36.04934466 89.56170463 -31.10388758 63.80130021 -38.75 38.6875 C-43.14021745 26.70686995 -49.8184614 17.72887096 -61.5 12.125 C-80.43023771 3.76998768 -102.39340576 7.37878127 -121.03149414 14.58276367 C-138.27170914 21.60305619 -153.01597747 31.83782614 -167 44 C-167.54350098 44.46905762 -168.08700195 44.93811523 -168.64697266 45.42138672 C-182.51104372 57.4716294 -194.25062214 71.14328061 -205 86 C-205.43376953 86.59828613 -205.86753906 87.19657227 -206.31445312 87.81298828 C-237.42807334 131.29069768 -257.94016844 187.62049054 -258.203125 241.4140625 C-258.21371445 242.86072296 -258.21371445 242.86072296 -258.22451782 244.33660889 C-258.6030344 273.3181976 -258.6030344 273.3181976 -255 302 C-254.79068848 303.03157227 -254.58137695 304.06314453 -254.36572266 305.12597656 C-251.64064806 318.11299166 -248.39290057 330.84846431 -243 343 C-242.70899414 343.65758301 -242.41798828 344.31516602 -242.11816406 344.99267578 C-230.76179767 370.12689832 -213.10882041 389.21073862 -187.23046875 399.4921875 C-159.8502236 409.61415676 -128.3546945 406.99123115 -102 395 C-84.10373959 386.71007453 -69.13779535 375.66390277 -55 362 C-54.07703125 361.12859375 -53.1540625 360.2571875 -52.203125 359.359375 C-45.04095538 352.43999079 -38.94266972 344.97091448 -33 337 C-32.5786377 336.43941895 -32.15727539 335.87883789 -31.72314453 335.30126953 C-12.53648744 309.64164417 2.01289929 280.62794068 13.28930664 250.72094727 C22.96406818 225.07553371 34.96836743 201.83798683 53 181 C53.75152344 180.12601563 54.50304687 179.25203125 55.27734375 178.3515625 C59.86679595 173.12664768 64.5922436 168.37065243 70 164 C71.46953125 162.80890625 71.46953125 162.80890625 72.96875 161.59375 C91.69187695 146.66964154 114.54128215 135.76873409 139.04296875 138.31640625 C152.47463944 140.06425554 163.98619293 144.20957761 173.2578125 154.5078125 C178.35532382 161.15589761 181.76885195 168.30154499 185 176 C185.56847656 175.154375 186.13695312 174.30875 186.72265625 173.4375 C198.00861289 156.78395222 210.13719191 144.51896359 230.53515625 140.53515625 C239.50761702 139.14933085 248.25961766 139.45423911 256.375 143.8125 C260.41729934 147.18108278 262.04843749 150.10738354 262.9375 155.25 C263.21265926 159.8354044 262.52811466 163.93007388 261.44140625 168.359375 C261.2654895 169.090354 261.08957275 169.82133301 260.9083252 170.57446289 C258.57328927 180.03706496 255.74044259 189.36130687 252.97290039 198.70407104 C223.08307118 282.47111312 223.08307118 282.47111312 225.875 367.1875 C227.98975764 369.98644394 228.8352308 370.79601172 232 372 C240.60861743 372.58901067 247.9266381 369.19430812 254.5703125 363.984375 C257.14053669 361.73641133 259.58571307 359.41428693 262 357 C262.67804687 356.32195312 263.35609375 355.64390625 264.0546875 354.9453125 C304.23734398 312.18063793 328.95130961 233.03002775 330.17578125 175.6796875 C330.19962891 174.56722656 330.22347656 173.45476562 330.24804688 172.30859375 C330.29115867 170.01191077 330.32233073 167.71497384 330.34179688 165.41796875 C330.5073586 158.78779928 330.82408707 154.2785816 335 149 C344.97246838 141.52836734 358.77660295 138.97259522 370.95703125 140.3671875 C378.19121716 141.871601 384.23307545 145.0781467 388.7578125 150.99609375 C395.04606494 161.14035004 396.3828215 172.98207323 396.3125 184.6875 C396.30831055 185.67226318 396.30412109 186.65702637 396.29980469 187.67163086 C396.02232914 206.3289096 392.56219708 224.73455556 389 243 C389.57105469 241.99324219 390.14210938 240.98648437 390.73046875 239.94921875 C399.98836864 223.8177942 410.39562186 208.53477667 422 194 C422.72445312 193.0821875 423.44890625 192.164375 424.1953125 191.21875 C441.80146234 169.25839107 465.9172988 142.76076157 495.359375 138.515625 C508.80638484 137.46217262 519.87601846 139.26970289 530.75 147.6875 C541.85787081 157.93287731 545.56735403 174.17124187 546.2578125 188.66796875 C547.14283816 217.40559105 539.65049518 244.98819804 532.98477173 272.68763733 C525.48593964 303.69296782 525.48593964 303.69296782 522.6875 335.375 C522.66961426 336.2913623 522.65172852 337.20772461 522.63330078 338.15185547 C522.6411447 344.31157397 523.75148053 349.28522853 526 355 C526.33 355.99 526.66 356.98 527 358 C532.98555781 360.20247798 539.21586879 359.68453887 544.9375 357.0625 C550.71348608 353.89647036 555.32750627 349.59280779 560 345 C560.54567627 344.48058838 561.09135254 343.96117676 561.65356445 343.42602539 C565.89134287 339.32395796 569.44813083 335.02595727 572.8125 330.1875 C573.32530518 329.45249268 573.83811035 328.71748535 574.36645508 327.96020508 C597.48713964 294.22123799 610.98437787 254.10491131 614.19512939 213.50622559 C616.07167361 189.96759872 618.50038497 165.85451504 637 149 C649.30517127 139.27561129 663.06014793 137.00036357 678.37109375 138.45703125 C683.13322614 139.16955698 686.06149964 140.24304975 690 143 C694.27705265 149.88293904 691.66538029 159.2307981 690.53515625 166.765625 C689.05552449 177.67607591 688.83777472 188.61117038 688.83203125 199.60546875 C688.82879935 201.09727507 688.82543403 202.5890811 688.82194519 204.08088684 C688.81599442 207.20310188 688.81410041 210.32528946 688.81469727 213.44750977 C688.81477747 216.5699659 688.80800037 219.69227199 688.79418945 222.81469727 C688.67277825 250.73636616 689.25213106 278.71307685 692.875 306.4375 C692.95992706 307.10761108 693.04485413 307.77772217 693.13235474 308.46813965 C695.58067976 334.35674416 695.58067976 334.35674416 706.4375 357.375 C708.89214403 359.21795269 708.89214403 359.21795269 711.8125 359.1875 C744.09726659 347.15984186 766.56898393 293.18107648 780.8125 264.75 C781.11367737 264.14982056 781.41485474 263.54964111 781.72515869 262.93127441 C784.50990625 257.35947388 787.12829467 251.95287147 789 246 C787.92298828 245.61328125 787.92298828 245.61328125 786.82421875 245.21875 C773.46129827 239.45217851 762.982534 227.41721563 756 215 C755.47664063 214.11054688 754.95328125 213.22109375 754.4140625 212.3046875 C741.76113444 189.24681351 741.24313997 160.9936783 748.03125 136.09765625 C753.44621924 118.3709495 763.5366113 102.35530842 780 93 C794.10991984 85.98246692 808.84393039 83.62710949 824.21484375 87.9609375 C828.70498942 89.63608301 832.29522325 91.99031676 836 95 C836.61488281 95.47953125 837.22976563 95.9590625 837.86328125 96.453125 C848.55614952 105.84198495 852.12783414 120.4831432 853.15966797 134.10839844 C854.92638175 166.14383082 844.94033245 200.03830357 832 229 C854.88304129 229.93400169 873.05125197 223.57863966 890 208 C896.63045082 201.8810411 902.33237885 195.47851781 907.8046875 188.34204102 C926.210023 164.4848418 951.24779003 142.98159259 982.08740234 138.7109375 C997.97990639 136.91492884 1013.88313128 138.35265678 1027.3125 147.8125 C1036.85378385 155.61541329 1042.30452626 165.30634132 1046 177 C1046.60134766 175.98292969 1046.60134766 175.98292969 1047.21484375 174.9453125 C1056.684962 159.44094657 1068.92378745 146.30099523 1086.75 141.1875 C1096.67165364 138.95576557 1107.62948668 138.53700409 1117 143 C1120.76698432 145.98219592 1122.4876475 148.50137112 1124 153 C1124.87803429 160.5873615 1123.45996003 167.34812168 1121.25 174.5625 C1120.94344482 175.614375 1120.63688965 176.66625 1120.32104492 177.75 C1119.42821505 180.81236125 1118.52330833 183.87089679 1117.61444092 186.92852783 C1106.49995937 224.39891515 1096.12189329 262.12941939 1088.875 300.5625 C1088.73629486 301.29610748 1088.59758972 302.02971497 1088.4546814 302.78555298 C1085.74684446 317.26476717 1083.64265266 331.61125674 1083.6875 346.375 C1083.67138672 347.45910156 1083.65527344 348.54320312 1083.63867188 349.66015625 C1083.63376605 357.79400919 1084.26286945 365.47054219 1089.375 372.0625 C1092.26149015 374.19300464 1093.42465596 375 1097 375 C1103.80453165 373.62864525 1108.81140929 370.49177584 1114 366 C1114.56203125 365.53207031 1115.1240625 365.06414062 1115.703125 364.58203125 C1130.07118114 351.52321387 1138.43239858 331.13844455 1145.23828125 313.43359375 C1149.64314571 302.11618637 1149.64314571 302.11618637 1154 300 C1157.00422475 300.12262142 1159.09787719 300.42675808 1161.65209961 302.04980469 C1163.78438902 305.1348849 1163.48816195 308.45308909 1163.50390625 312.078125 C1163.51389145 312.88175476 1163.52387665 313.68538452 1163.53416443 314.5133667 C1163.54936445 316.22142398 1163.55638964 317.92957047 1163.5559082 319.63769531 C1163.56237424 322.20016339 1163.61655289 324.75854747 1163.67382812 327.3203125 C1163.7905421 338.54053371 1162.10715734 346.94598921 1157 357 C1156.59177002 357.80888672 1156.18354004 358.61777344 1155.76293945 359.45117188 C1154.70574931 361.40205244 1153.58176412 363.26360278 1152.375 365.125 C1151.95532959 365.78258301 1151.53565918 366.44016602 1151.10327148 367.11767578 C1146.48455154 374.12311482 1140.9660913 380.1303264 1135 386 C1133.63875 387.35931641 1133.63875 387.35931641 1132.25 388.74609375 C1114.01686743 406.15767529 1091.45219553 414.58127005 1066.515625 414.2109375 C1054.30714985 413.79855781 1042.71429697 409.12994458 1033.6796875 400.80859375 C1024.2392037 390.6436077 1018.4861036 378.76702671 1014.76171875 365.51953125 C1014.24199298 363.08458584 1014.24199298 363.08458584 1013 362 C1012.55011719 362.71542969 1012.10023437 363.43085938 1011.63671875 364.16796875 C1006.34423688 372.36654288 1000.47710305 379.71816597 994 387 C993.41734375 387.66773438 992.8346875 388.33546875 992.234375 389.0234375 C983.51995352 398.39804243 971.88047988 405.50088336 960 410 C958.92105469 410.4125 957.84210938 410.825 956.73046875 411.25 C941.47299145 416.18170983 921.74604963 416.81898249 907 410 C906.06671875 409.5875 905.1334375 409.175 904.171875 408.75 C887.65510962 400.63002596 877.35540666 385.8978773 871.27734375 368.95703125 C857.67156775 328.22111403 864.13978843 283.95062288 877 244 C876.030625 244.53109375 875.06125 245.0621875 874.0625 245.609375 C855.69407043 255.41699473 839.56254718 256.61198057 819 256 C818.78085938 256.77085937 818.56171875 257.54171875 818.3359375 258.3359375 C816.51532258 263.32931993 814.09517959 267.92517681 811.625 272.625 C811.0882666 273.64625977 810.5515332 274.66751953 809.99853516 275.71972656 C790.34157751 312.7582384 765.8388086 347.54238094 737 378 C736.52981445 378.49886719 736.05962891 378.99773437 735.57519531 379.51171875 C721.43232135 394.41104974 701.02876128 413.64243247 679.375 414.3125 C670.48917692 414.16896982 663.57413922 410.58685165 657.21875 404.5 C632.73300477 376.91042791 626.23860694 333.01461896 621.36962891 298.04589844 C621.08870264 295.9431814 621.08870264 295.9431814 620 294 C619.71914551 294.65258789 619.43829102 295.30517578 619.14892578 295.97753906 C605.91246605 326.63887175 591.82309581 356.11516853 568.94140625 380.8671875 C566.8597768 383.09781939 566.8597768 383.09781939 564.625 386.0625 C560.55376775 390.61840276 555.82221627 394.26751325 551 398 C550.18144531 398.63421875 549.36289062 399.2684375 548.51953125 399.921875 C534.17661584 410.4977278 518.33179447 415.33942945 500.6015625 413.56640625 C490.23291356 411.93576189 482.08806107 408.7281216 474 402 C473.36449219 401.47664063 472.72898437 400.95328125 472.07421875 400.4140625 C457.03185532 386.73918665 453.97092222 365.65612077 452.78125 346.47265625 C452.01533761 318.1019849 459.89340874 289.57891274 465.67640686 262.00189209 C466.40485455 258.52253175 467.12857495 255.04219399 467.85220337 251.56182861 C468.35677112 249.14964662 468.87060966 246.73958636 469.38549805 244.32958984 C470.96753361 236.82612845 472.32725773 229.35134544 473.23828125 221.734375 C473.32141571 221.04179092 473.40455017 220.34920685 473.49020386 219.63563538 C474.58639257 210.27489017 474.58639257 210.27489017 471.44921875 201.73828125 C470.73185547 200.87783203 470.73185547 200.87783203 470 200 C462.32913939 200.13947019 458.56378575 202.90699612 453 208 C452.51370117 208.4439209 452.02740234 208.8878418 451.52636719 209.34521484 C442.48899112 217.70323732 435.04964052 226.93474875 428 237 C427.57122559 237.61069336 427.14245117 238.22138672 426.70068359 238.85058594 C394.57187139 285.00676484 369.61575122 338.92291924 356.9753418 393.8215332 C355.40565028 400.40440781 353.62152931 404.90277655 348.1875 409.25 C339.12386798 414.2261117 326.06300384 415.70977229 316.05078125 412.84375 C306.95026357 409.09953701 301.58505149 403.16829117 297.81640625 394.17578125 C293.84737794 383.05377884 292.71837379 371.72083549 292 360 C291.23429688 361.05574219 291.23429688 361.05574219 290.453125 362.1328125 C273.26780481 385.47315871 252.64655888 407.94286857 222.80859375 413.53125 C205.40887751 415.67275354 190.21901532 413.63584444 175.62890625 403.32421875 C162.87424092 393.00111873 156.80964141 377.18834129 152 362 C151.40574219 362.85980469 150.81148438 363.71960938 150.19921875 364.60546875 C133.80200895 388.10042847 115.52103733 406.87657796 86.65258789 413.54199219 C73.52645341 415.80840989 57.16070457 415.84615897 45 410 C43.98292969 409.51402344 42.96585937 409.02804687 41.91796875 408.52734375 C25.1508541 399.60597331 14.87269313 383.68879212 9 366 C7.89120631 362.04705814 6.94628577 358.07130604 6.0625 354.0625 C5.85093262 353.10375977 5.63936523 352.14501953 5.42138672 351.15722656 C4.23076039 345.3267041 3.79867519 339.94823314 4 334 C3.34 334 2.68 334 2 334 C1.77828125 334.81082031 1.5565625 335.62164062 1.328125 336.45703125 C-0.34727071 340.9263957 -2.68075792 344.68090237 -5.25 348.6875 C-6.04083984 349.9262085 -6.04083984 349.9262085 -6.84765625 351.18994141 C-15.3738875 364.37614741 -24.51009162 376.96021131 -35.40625 388.2890625 C-37.51283878 390.49082848 -39.48959642 392.72310599 -41.4375 395.0625 C-67.69519161 425.07129041 -107.35494682 447.64891747 -147 453 C-150.20662541 453.1712155 -153.4103592 453.21060662 -156.62109375 453.23828125 C-158.01368912 453.25310799 -158.01368912 453.25310799 -159.43441772 453.26823425 C-198.6539082 453.5997501 -198.6539082 453.5997501 -215 449 C-216.45575439 448.5973291 -216.45575439 448.5973291 -217.94091797 448.18652344 C-242.39141606 441.20066684 -263.61577104 429.62203042 -282 412 C-282.80824219 411.25492187 -283.61648438 410.50984375 -284.44921875 409.7421875 C-322.56223832 373.48396166 -335.35566785 316.01005413 -337.12597656 265.3984375 C-338.83441741 186.68040333 -313.78514959 110.07562918 -259.69921875 51.921875 C-257.19512409 49.21121971 -254.75073155 46.4572639 -252.3125 43.6875 C-249.16079506 40.18622215 -245.93277601 36.98692491 -242.328125 33.95703125 C-240.51989598 32.43702666 -238.74784411 30.89484257 -236.984375 29.32421875 C-223.74181631 17.61217788 -209.36239948 7.71952165 -194 -1 C-193.37786621 -1.36158203 -192.75573242 -1.72316406 -192.11474609 -2.09570312 C-135.54968781 -34.79760274 -53.16007266 -43.88714387 0 0 Z M796 126 C785.82860187 141.45822654 785.7281734 163.05481811 789.1875 180.6875 C792.10578462 191.87199547 796.39960163 201.50836084 803 211 C805.41634012 208.58365988 805.7175153 206.99501798 806.5859375 203.70703125 C806.8751709 202.61261719 807.1644043 201.51820313 807.46240234 200.390625 C807.76355957 199.20984375 808.0647168 198.0290625 808.375 196.8125 C808.68518066 195.60464844 808.99536133 194.39679688 809.31494141 193.15234375 C817.95325385 160.76102831 817.95325385 160.76102831 815 128 C813.17234961 125.0065394 811.19376743 122.59688372 808 121 C802.54659189 120.25635344 799.44541279 121.88412851 796 126 Z M127 187 C126.34386719 187.49113281 125.68773437 187.98226562 125.01171875 188.48828125 C99.63490868 208.98297957 86.78387818 247.2056445 79.125 277.5 C78.83866699 278.63236084 78.55233398 279.76472168 78.25732422 280.93139648 C75.19128743 293.57995053 73.6422103 305.9436196 73.68432617 318.95898438 C73.68749881 320.9992367 73.66385498 323.03804869 73.63867188 325.078125 C73.57046947 339.03842255 75.43087849 353.83355789 84.62890625 364.97265625 C89.27822947 369.36308444 94.87045927 371.76423037 101.2578125 372.12890625 C110.7227321 371.58475582 118.69289906 365.71992936 125 359 C157.02615096 321.22302317 174.215109 260.03740157 171 211 C169.97352989 200.58519147 167.51238825 189.81810905 159.5625 182.5 C148.612214 174.07304077 136.7507896 179.52261854 127 187 Z M981.0859375 193.5390625 C957.09597909 221.84182242 943.92756948 257.92477457 937 294 C936.75378906 295.27488281 936.50757813 296.54976563 936.25390625 297.86328125 C932.74779821 319.60115113 932.81589886 343.96550175 945 363 C949.1610356 368.14856248 954.51573663 370.83328133 961 372 C969.4201734 372.38129087 975.84575936 368.2011471 982 362.875 C1009.69536024 336.73934802 1022.01919757 294.34481732 1029 258 C1029.16371094 257.16645996 1029.32742188 256.33291992 1029.49609375 255.47412109 C1033.53111765 234.18603531 1036.91748079 206.11449477 1025.125 186.75 C1021.51361921 182.01909117 1018.08584324 179.52146081 1012.25 178.0625 C1000.29844526 177.17803959 988.91184651 185.20207372 981.0859375 193.5390625 Z " fill="#FFFFFF" transform="translate(337,29)"/>
</svg>
